<?xml version="1.0" encoding="UTF-8" standalone="no"?>
<svg
   xmlns:dc="http://purl.org/dc/elements/1.1/"
   xmlns:cc="http://creativecommons.org/ns#"
   xmlns:rdf="http://www.w3.org/1999/02/22-rdf-syntax-ns#"
   xmlns:svg="http://www.w3.org/2000/svg"
   xmlns="http://www.w3.org/2000/svg"
   xmlns:sodipodi="http://sodipodi.sourceforge.net/DTD/sodipodi-0.dtd"
   xmlns:inkscape="http://www.inkscape.org/namespaces/inkscape"
   width="100%"
   height="100%"
   viewBox="0 0 73 102.551"
   version="1.1"
   xml:space="preserve"
   style="clip-rule:evenodd;fill-rule:evenodd;stroke-linejoin:round;stroke-miterlimit:1.41421"
   id="svg1077"
   sodipodi:docname="icon.svg"
   inkscape:version="1.0.2 (394de47547, 2021-03-26)"
   inkscape:export-filename="/home/will/code/react-reader/public/favicon.png"
   inkscape:export-xdpi="87.995239"
   inkscape:export-ydpi="87.995239"><metadata
     id="metadata1081"><rdf:RDF><cc:Work
         rdf:about=""><dc:format>image/svg+xml</dc:format><dc:type
           rdf:resource="http://purl.org/dc/dcmitype/StillImage" /><dc:title></dc:title></cc:Work></rdf:RDF></metadata><sodipodi:namedview
     pagecolor="#ffffff"
     bordercolor="#666666"
     borderopacity="1"
     objecttolerance="10"
     gridtolerance="10"
     guidetolerance="10"
     inkscape:pageopacity="0"
     inkscape:pageshadow="2"
     inkscape:window-width="1836"
     inkscape:window-height="1080"
     id="namedview1079"
     showgrid="false"
     fit-margin-top="0"
     fit-margin-left="0"
     fit-margin-right="0"
     fit-margin-bottom="0"
     inkscape:zoom="5.9636364"
     inkscape:cx="64.380486"
     inkscape:cy="58.674748"
     inkscape:window-x="932"
     inkscape:window-y="178"
     inkscape:window-maximized="0"
     inkscape:current-layer="Layer 1" /><g
     id="g1058"
     transform="translate(-1)"><g
       id="Layer 1"><path
         d="M 1.088,38.055 61.518,12.519 V 4.787 Z"
         style="fill:url(#_Linear1);fill-rule:nonzero"
         id="path1045" /><path
         d="M 50.261,0 1.088,35.491 50.261,7.732 Z"
         style="fill:url(#_Linear2);fill-rule:nonzero"
         id="path1047" /><path
         d="m 1,40.928 v 51.525 c 0,5.5 4.588,10.098 10.088,10.098 h 53.065 c 5.5,0 9.847,-4.598 9.847,-10.098 V 10.627 Z"
         style="fill:url(#_Linear3);fill-rule:nonzero"
         id="path1049" /><path
         d="m 84.182115,55.091353 c -2.340671,2.111113 -5.899737,4.114315 -10.290694,5.785938 -1.777571,0.678852 -3.666978,1.298844 -5.652521,1.859976 -0.612144,-1.963962 -1.310616,-3.975012 -2.08953,-6.02334 -0.95157,-2.497626 -2.009087,-5.012909 -3.170592,-7.528193 1.151694,-2.499589 2.203327,-4.997214 3.14901,-7.479143 0.7848,-2.062062 1.485234,-4.086846 2.101302,-6.066504 1.989468,0.563094 3.882798,1.183085 5.662331,1.861937 4.390957,1.675548 7.950023,3.674826 10.290694,5.785938 2.169972,1.958076 3.27065,3.94362 3.27065,5.901695 0,1.960038 -1.100678,3.945583 -3.27065,5.901696 m -17.97977,19.080448 c 0.743597,4.636211 0.790685,8.719125 0.133415,11.801429 -0.60822,2.85864 -1.777572,4.802977 -3.474702,5.78398 -0.877014,0.506194 -1.92276,0.763212 -3.103883,0.763212 -2.109151,0 -4.614625,-0.778909 -7.447753,-2.317119 -2.946923,-1.599028 -6.101819,-3.947543 -9.378358,-6.978832 -0.470881,-0.435561 -0.937836,-0.880937 -1.408717,-1.340049 1.963962,-2.124841 3.91419,-4.430195 5.831064,-6.894463 1.10853,-1.42834 2.199402,-2.899839 3.268691,-4.406655 2.766421,-0.255057 5.479866,-0.596445 8.126604,-1.022201 2.156239,-0.349231 4.239882,-0.749487 6.241122,-1.198784 0.506196,1.99339 0.91233,3.935777 1.212517,5.809482 M 24.29795,90.138552 c -2.833128,1.53625 -5.338602,2.317131 -7.44579,2.317131 -1.183086,0 -2.22687,-0.257029 -3.103884,-0.765184 -1.697129,-0.979042 -2.866481,-2.923379 -3.476663,-5.78398 -0.6572705,-3.082293 -0.6101825,-7.163257 0.133416,-11.80339 0.300185,-1.859968 0.702396,-3.786658 1.202706,-5.768272 2.04048,0.459101 4.165325,0.869161 6.364728,1.226246 2.591801,0.417902 5.24835,0.753407 7.955909,1.004543 1.086948,1.540171 2.19744,3.039144 3.32559,4.491013 1.897254,2.438766 3.823937,4.71862 5.766317,6.825802 -0.447335,0.435561 -0.894672,0.861318 -1.342007,1.275299 -3.278502,3.031289 -6.433398,5.379804 -9.380322,6.980792 M 2.8297471,60.877291 C -1.5592473,59.205668 -5.1183144,57.202466 -7.4589812,55.091353 -9.628953,53.13524 -10.729634,51.149695 -10.729634,49.189657 c 0,-1.958075 1.100681,-3.943619 3.2706528,-5.901695 2.3406668,-2.111112 5.8997339,-4.11039 10.2887283,-5.785938 1.7442172,-0.663156 3.5963453,-1.271376 5.5387251,-1.826622 0.6180303,1.987507 1.3223883,4.0221 2.1130748,6.095934 0.935874,2.46231 1.975733,4.936391 3.115655,7.414398 -1.147769,2.495664 -2.195477,4.985441 -3.139199,7.461485 C 9.6751645,58.70732 8.9747305,60.726218 8.3606246,62.701951 6.4202067,62.150629 4.5700405,61.540448 2.8297471,60.877291 M 10.426611,24.315423 c -0.7435985,-4.638168 -0.7906865,-8.72109 -0.133416,-11.803391 0.610182,-2.8586345 1.779534,-4.8029772 3.474701,-5.7839771 0.878976,-0.5061957 1.92276,-0.7632173 3.103884,-0.7632173 2.111112,0 4.614624,0.7769517 7.44579,2.3171217 2.948886,1.5990303 6.105744,3.9475437 9.382284,6.9788337 0.439488,0.406134 0.878975,0.826002 1.320425,1.253719 -1.950227,2.111111 -3.884759,4.402727 -5.787899,6.849341 -1.120302,1.440108 -2.220984,2.925342 -3.298122,4.451777 -2.709522,0.253099 -5.368032,0.586639 -7.961795,1.004545 -2.195478,0.355122 -4.3164,0.763217 -6.352957,1.224287 -0.494423,-1.965923 -0.894671,-3.880835 -1.192895,-5.729039 M 57.316446,38.27309 c -1.067328,-1.848204 -2.168009,-3.657167 -3.300084,-5.422967 3.376602,0.417906 6.621751,0.971189 9.688356,1.653965 -0.939797,2.995974 -2.07972,6.0822 -3.404069,9.217476 -0.943723,-1.820736 -1.940418,-3.637548 -2.984203,-5.448474 M 38.273275,19.869531 c 2.115037,2.303388 4.212414,4.824558 6.252894,7.518384 -2.034593,-0.09221 -4.09077,-0.137341 -6.164603,-0.137341 -2.132695,0 -4.24773,0.04905 -6.335298,0.145188 2.04048,-2.695787 4.133934,-5.220881 6.247007,-7.526231 M 16.275333,43.713716 c -1.316503,-3.121542 -2.450538,-6.195995 -3.384451,-9.182159 3.052873,-0.682776 6.282324,-1.239985 9.645192,-1.659852 -1.112454,1.738331 -2.195478,3.519828 -3.243186,5.334678 -1.057517,1.830546 -2.064024,3.668939 -3.017555,5.507333 m 6.256818,21.797817 c -3.364831,-0.421825 -6.596245,-0.979036 -9.651078,-1.663774 0.937836,-2.990088 2.071871,-6.066504 3.392297,-9.190007 0.961381,1.858014 1.975734,3.710141 3.039138,5.554421 1.041822,1.803078 2.116999,3.57084 3.219643,5.29936 m 15.741124,13.011988 c -2.115035,-2.305355 -4.212414,-4.836334 -6.254856,-7.53604 2.091493,0.09414 4.20849,0.143227 6.343147,0.143227 2.075795,0 4.135895,-0.04518 6.172452,-0.137344 -2.044404,2.697745 -4.143745,5.226763 -6.260743,7.530157 M 60.304573,54.649903 c 1.324349,3.137239 2.468195,6.225426 3.409955,9.227286 -3.068568,0.680814 -6.315678,1.234099 -9.694242,1.653963 1.122264,-1.754025 2.215099,-3.549255 3.274578,-5.383725 1.053595,-1.826622 2.058138,-3.65913 3.009709,-5.497524 m -7.049466,3.166668 c -1.652004,2.862558 -3.402108,5.642712 -5.216958,8.301222 -3.152934,0.231517 -6.390234,0.351202 -9.676583,0.351202 -3.347172,0 -6.639408,-0.123607 -9.845317,-0.362978 -1.797191,-2.634962 -3.527675,-5.38961 -5.163983,-8.2247 -1.669662,-2.891988 -3.209832,-5.801633 -4.602852,-8.693622 1.387135,-2.878253 2.919456,-5.772202 4.579308,-8.650456 1.646118,-2.848825 3.386412,-5.613283 5.191452,-8.261983 3.203945,-0.239363 6.496181,-0.361007 9.841392,-0.361007 3.284387,0 6.521687,0.11772 9.672659,0.349236 1.82466,2.670282 3.582612,5.462208 5.244426,8.340461 1.64808,2.85471 3.16863,5.727078 4.547916,8.583749 -1.385172,2.870407 -2.911609,5.75847 -4.57146,8.628876 M 52.289802,8.2152516 c 2.831166,-1.5362463 5.33664,-2.3171218 7.44579,-2.3171218 1.181124,0 2.224908,0.2570216 3.103884,0.7632173 1.695169,0.979038 2.86452,2.9253416 3.474702,5.7859389 0.65727,3.082301 0.612144,7.163261 -0.133415,11.801428 -0.300187,1.861939 -0.702397,3.788623 -1.202707,5.768281 -1.999278,-0.449298 -4.077036,-0.849547 -6.22935,-1.19682 -2.6487,-0.425755 -5.364107,-0.767142 -8.132489,-1.02024 -1.059481,-1.498968 -2.140542,-2.954772 -3.241224,-4.371336 -1.922759,-2.472119 -3.878874,-4.785317 -5.850684,-6.918012 0.46107,-0.449298 0.924103,-0.886824 1.383211,-1.31454 3.276539,-3.03129 6.433397,-5.3798044 9.382282,-6.9807954 M 90.794047,44.135546 c -0.804411,-1.497006 -1.977693,-2.944962 -3.490391,-4.306589 -2.803705,-2.529019 -6.759093,-4.779433 -11.75042,-6.684535 -1.90314,-0.723978 -3.924,-1.387134 -6.056694,-1.987505 0.537588,-2.11896 0.967266,-4.179061 1.287072,-6.168528 0.847584,-5.273856 0.877014,-9.821772 0.09025,-13.514255 C 70.450073,9.4827027 69.781031,7.7384854 68.886359,6.2964157 67.909282,4.7189673 66.659488,3.4829077 65.170331,2.623552 63.573265,1.7033731 61.744681,1.2364175 59.735592,1.2364175 c -2.895911,0 -6.148907,0.9692274 -9.672659,2.8841395 -3.28635,1.7834585 -6.759089,4.3576019 -10.320119,7.653762 -0.490501,0.453222 -0.981,0.920178 -1.473463,1.396944 C 37.802396,12.716079 37.333477,12.272667 36.86456,11.839065 33.30353,8.5448667 29.83079,5.9707233 26.54444,4.1853029 23.02265,2.2723538 19.767692,1.3011634 16.87178,1.3011634 c -2.009087,0 -3.837671,0.4669555 -5.434739,1.3890963 C 9.9498445,3.5496155 8.6980884,4.7837132 7.7210122,6.3611615 6.8283032,7.8051932 6.1572983,9.5474496 5.7335067,11.540841 c -0.7867623,3.692484 -0.7573317,8.238438 0.090252,13.514256 0.3178448,1.977696 0.7455602,4.026024 1.2792247,6.135173 -2.0875678,0.592525 -4.0672258,1.24587 -5.9350502,1.954152 -4.9913274,1.905102 -8.9447577,4.155516 -11.7504172,6.684535 -1.512702,1.361627 -2.685978,2.809583 -3.488437,4.306589 -0.877013,1.634345 -1.322387,3.3354 -1.322387,5.054111 0,1.720675 0.445374,3.419766 1.322387,5.054113 0.802459,1.497006 1.975735,2.946923 3.488437,4.312476 2.8056595,2.529017 6.7590898,4.773545 11.7504172,6.678649 1.8638995,0.710238 3.8396337,1.359668 5.9232777,1.952192 -0.5375882,2.12484 -0.9692275,4.186902 -1.2890342,6.176371 -0.8475832,5.275816 -0.8770139,9.823736 -0.090252,13.51622 0.4257535,1.99143 1.0928335,3.733684 1.9875056,5.17771 0.9770761,1.577449 2.2268702,2.809588 3.7160277,3.672866 1.597069,0.920186 3.425653,1.387141 5.436702,1.387141 2.89395,0 6.146946,-0.969227 9.668736,-2.884142 3.288311,-1.783463 6.763014,-4.357601 10.322082,-7.653763 0.476766,-0.439483 0.951569,-0.890752 1.426373,-1.353775 0.498348,0.484614 0.996696,0.961373 1.495045,1.420486 3.56103,3.29419 7.033769,5.868339 10.322081,7.653764 3.52179,1.912942 6.776748,2.88413 9.670698,2.88413 2.011049,0 3.839634,-0.466955 5.434739,-1.389091 1.489159,-0.857396 2.738952,-2.093456 3.716028,-3.670905 0.894672,-1.444026 1.563714,-3.18628 1.989468,-5.17772 0.786761,-3.692474 0.75537,-8.240394 -0.09221,-13.51621 -0.321768,-2.001244 -0.75537,-4.07311 -1.296882,-6.209738 2.126808,-0.598405 4.145706,-1.261562 6.044922,-1.985536 4.991327,-1.905104 8.946713,-4.149632 11.750418,-6.678649 1.512698,-1.365553 2.68598,-2.81547 3.490391,-4.312476 0.875054,-1.634347 1.32043,-3.333438 1.32043,-5.054113 0,-1.718711 -0.445376,-3.419766 -1.32043,-5.054111"
         style="fill:#67daf9;fill-rule:nonzero;stroke-width:1.962;stroke:#fefee5;stroke-opacity:0.67575914"
         id="path1051" /><path
         d="m 37.290505,63.325895 c -8.007163,0 -14.492912,-6.49101 -14.492912,-14.498173 0,-7.996634 6.485749,-14.487648 14.492912,-14.487648 8.001898,0 14.492912,6.491014 14.492912,14.487648 0,8.007163 -6.491014,14.498173 -14.492912,14.498173 M 74.94154,48.696112 c 0,-0.03687 -0.0051,-0.06842 -0.0051,-0.09477 0,-0.01583 -0.0054,-0.03687 -0.0054,-0.05264 0,-0.02093 -0.0054,-0.03687 -0.0054,-0.06316 -0.0054,-0.02656 -0.01046,-0.05264 -0.01046,-0.07897 -0.0054,0 -0.0054,-0.0054 -0.0054,-0.01046 -0.08951,-0.579082 -0.363246,-1.131845 -0.784396,-1.542469 -2.40057,-2.853308 -5.259143,-5.385491 -8.17036,-7.701827 C 59.701007,34.166416 52.536149,29.991741 44.639539,28.31766 40.070034,27.343745 35.474207,27.301629 30.883644,28.122888 26.70897,28.870433 22.681698,30.423433 18.917648,32.344939 13.021515,35.356183 7.6360244,39.515064 2.9454404,44.1688 c -0.86863,0.863362 -1.737254,1.737254 -2.521651,2.679583 -1.052881,1.247664 -1.052881,2.721695 0,3.964095 2.400567,2.848044 5.259142,5.385491 8.165095,7.701827 6.2593766,4.985394 13.4189696,9.154807 21.3208476,10.834152 4.569502,0.968649 9.160065,1.010766 13.750628,0.194773 4.179939,-0.752808 8.201945,-2.305811 11.971258,-4.227316 5.896138,-3.011241 11.281626,-7.164858 15.977477,-11.823861 0.86336,-0.86336 1.726726,-1.737254 2.516387,-2.674316 0.42115,-0.426417 0.694899,-0.973918 0.789658,-1.547735 v -0.01047 c 0.0054,-0.03161 0.0054,-0.0579 0.01046,-0.08425 0,-0.01583 0.0054,-0.04213 0.0054,-0.0579 0.0054,-0.02093 0.0054,-0.03687 0.0054,-0.05264 l 0.01046,-0.09477 c 0,-0.04213 0,-0.08951 0,-0.142128 0,-0.04213 0,-0.08951 -0.0054,-0.13161"
         style="fill:#ffffff;fill-rule:nonzero;stroke-width:2.24125984;stroke:#7682fa;stroke-opacity:0.88696367;stroke-miterlimit:1.41420996;stroke-dasharray:none"
         id="path1053" /><path
         d="m 37.290505,44.037109 c 2.647999,0 4.795875,2.147881 4.795875,4.790613 0,2.653258 -2.147876,4.801139 -4.795875,4.801139 -2.647997,0 -4.795872,-2.147881 -4.795872,-4.801139 0,-2.642732 2.147875,-4.790613 4.795872,-4.790613"
         style="fill:#ffffff;fill-rule:nonzero;stroke-width:5.26441"
         id="path1055" /></g></g><defs
     id="defs1075"><linearGradient
       id="_Linear1"
       x1="0"
       y1="0"
       x2="1"
       y2="0"
       gradientUnits="userSpaceOnUse"
       gradientTransform="matrix(60.4297,0,0,60.4297,1.08789,21.4201)"><stop
         offset="0%"
         style="stop-color:#262728;stop-opacity:1"
         id="stop1060" /><stop
         offset="100%"
         style="stop-color:#464b4f;stop-opacity:1"
         id="stop1062" /></linearGradient><linearGradient
       id="_Linear2"
       x1="0"
       y1="0"
       x2="1"
       y2="0"
       gradientUnits="userSpaceOnUse"
       gradientTransform="matrix(49.1724,0,0,49.1724,1.08789,17.7463)"><stop
         offset="0%"
         style="stop-color:#262728;stop-opacity:1"
         id="stop1065" /><stop
         offset="100%"
         style="stop-color:#464b4f;stop-opacity:1"
         id="stop1067" /></linearGradient><linearGradient
       id="_Linear3"
       x1="0"
       y1="0"
       x2="1"
       y2="0"
       gradientUnits="userSpaceOnUse"
       gradientTransform="matrix(73,0,0,73,1,56.5891)"><stop
         offset="0%"
         style="stop-color:#262728;stop-opacity:1"
         id="stop1070" /><stop
         offset="100%"
         style="stop-color:#464b4f;stop-opacity:1"
         id="stop1072" /></linearGradient></defs></svg>
