<?xml version="1.0" encoding="UTF-8" standalone="no"?>
<svg
   xmlns:dc="http://purl.org/dc/elements/1.1/"
   xmlns:cc="http://creativecommons.org/ns#"
   xmlns:rdf="http://www.w3.org/1999/02/22-rdf-syntax-ns#"
   xmlns:svg="http://www.w3.org/2000/svg"
   xmlns="http://www.w3.org/2000/svg"
   xmlns:sodipodi="http://sodipodi.sourceforge.net/DTD/sodipodi-0.dtd"
   xmlns:inkscape="http://www.inkscape.org/namespaces/inkscape"
   stroke-linejoin="round"
   stroke-miterlimit="1.4142"
   version="1.1"
   viewBox="0 0 73 102.55"
   id="svg1086"
   sodipodi:docname="logo.svg"
   width="100%"
   height="100%"
   inkscape:version="1.0.2 (394de47547, 2021-03-26)">
  <metadata
     id="metadata1090">
    <rdf:RDF>
      <cc:Work
         rdf:about="">
        <dc:format>image/svg+xml</dc:format>
        <dc:type
           rdf:resource="http://purl.org/dc/dcmitype/StillImage" />
      </cc:Work>
    </rdf:RDF>
  </metadata>
  <sodipodi:namedview
     pagecolor="#ffffff"
     bordercolor="#666666"
     borderopacity="1"
     objecttolerance="10"
     gridtolerance="10"
     guidetolerance="10"
     inkscape:pageopacity="0"
     inkscape:pageshadow="2"
     inkscape:window-width="2099"
     inkscape:window-height="1369"
     id="namedview1088"
     showgrid="false"
     inkscape:zoom="10.1804"
     inkscape:cx="36.5"
     inkscape:cy="51.275"
     inkscape:window-x="0"
     inkscape:window-y="30"
     inkscape:window-maximized="0"
     inkscape:current-layer="svg1086" />
  <g
     transform="translate(-1)"
     id="g1067">
    <g
       fill-rule="nonzero"
       id="g1065">
      <path
         d="m1.088 38.055 60.43-25.536v-7.732z"
         fill="url(#c)"
         id="path1053" />
      <path
         d="m50.261 0-49.173 35.491 49.173-27.759z"
         fill="url(#b)"
         id="path1055" />
      <path
         d="m1 40.928v51.525c0 5.5 4.588 10.098 10.088 10.098h53.065c5.5 0 9.847-4.598 9.847-10.098v-81.826z"
         fill="url(#a)"
         id="path1057" />
      <path
         d="m61.372 68.887c-1.193 1.076-3.007 2.097-5.245 2.949-.906.346-1.869.662-2.881.948-.312-1.001-.668-2.026-1.065-3.07-.485-1.273-1.024-2.555-1.616-3.837.587-1.274 1.123-2.547 1.605-3.812.4-1.051.757-2.083 1.071-3.092 1.014.287 1.979.603 2.886.949 2.238.854 4.052 1.873 5.245 2.949 1.106.998 1.667 2.01 1.667 3.008 0 .999-.561 2.011-1.667 3.008m-9.164 9.725c.379 2.363.403 4.444.068 6.015-.31 1.457-.906 2.448-1.771 2.948-.447.258-.98.389-1.582.389-1.075 0-2.352-.397-3.796-1.181-1.502-.815-3.11-2.012-4.78-3.557-.24-.222-.478-.449-.718-.683 1.001-1.083 1.995-2.258 2.972-3.514.565-.728 1.121-1.478 1.666-2.246 1.41-.13 2.793-.304 4.142-.521 1.099-.178 2.161-.382 3.181-.611.258 1.016.465 2.006.618 2.961m-21.358 8.138c-1.444.783-2.721 1.181-3.795 1.181-.603 0-1.135-.131-1.582-.39-.865-.499-1.461-1.49-1.772-2.948-.335-1.571-.311-3.651.068-6.016.153-.948.358-1.93.613-2.94 1.04.234 2.123.443 3.244.625 1.321.213 2.675.384 4.055.512.554.785 1.12 1.549 1.695 2.289.967 1.243 1.949 2.405 2.939 3.479-.228.222-.456.439-.684.65-1.671 1.545-3.279 2.742-4.781 3.558m-10.942-14.914c-2.237-.852-4.051-1.873-5.244-2.949-1.106-.997-1.667-2.009-1.667-3.008 0-.998.561-2.01 1.667-3.008 1.193-1.076 3.007-2.095 5.244-2.949.889-.338 1.833-.648 2.823-.931.315 1.013.674 2.05 1.077 3.107.477 1.255 1.007 2.516 1.588 3.779-.585 1.272-1.119 2.541-1.6 3.803-.399 1.05-.756 2.079-1.069 3.086-.989-.281-1.932-.592-2.819-.93m3.872-18.635c-.379-2.364-.403-4.445-.068-6.016.311-1.457.907-2.448 1.771-2.948.448-.258.98-.389 1.582-.389 1.076 0 2.352.396 3.795 1.181 1.503.815 3.112 2.012 4.782 3.557.224.207.448.421.673.639-.994 1.076-1.98 2.244-2.95 3.491-.571.734-1.132 1.491-1.681 2.269-1.381.129-2.736.299-4.058.512-1.119.181-2.2.389-3.238.624-.252-1.002-.456-1.978-.608-2.92m23.899 7.114c-.544-.942-1.105-1.864-1.682-2.764 1.721.213 3.375.495 4.938.843-.479 1.527-1.06 3.1-1.735 4.698-.481-.928-.989-1.854-1.521-2.777m-9.706-9.38c1.078 1.174 2.147 2.459 3.187 3.832-1.037-.047-2.085-.07-3.142-.07-1.087 0-2.165.025-3.229.074 1.04-1.374 2.107-2.661 3.184-3.836m-11.212 12.153c-.671-1.591-1.249-3.158-1.725-4.68 1.556-.348 3.202-.632 4.916-.846-.567.886-1.119 1.794-1.653 2.719-.539.933-1.052 1.87-1.538 2.807m3.189 11.11c-1.715-.215-3.362-.499-4.919-.848.478-1.524 1.056-3.092 1.729-4.684.49.947 1.007 1.891 1.549 2.831.531.919 1.079 1.82 1.641 2.701m8.023 6.632c-1.078-1.175-2.147-2.465-3.188-3.841 1.066.048 2.145.073 3.233.073 1.058 0 2.108-.023 3.146-.07-1.042 1.375-2.112 2.664-3.191 3.838m11.229-12.168c.675 1.599 1.258 3.173 1.738 4.703-1.564.347-3.219.629-4.941.843.572-.894 1.129-1.809 1.669-2.744.537-.931 1.049-1.865 1.534-2.802m-3.593 1.614c-.842 1.459-1.734 2.876-2.659 4.231-1.607.118-3.257.179-4.932.179-1.706 0-3.384-.063-5.018-.185-.916-1.343-1.798-2.747-2.632-4.192-.851-1.474-1.636-2.957-2.346-4.431.707-1.467 1.488-2.942 2.334-4.409.839-1.452 1.726-2.861 2.646-4.211 1.633-.122 3.311-.184 5.016-.184 1.674 0 3.324.06 4.93.178.93 1.361 1.826 2.784 2.673 4.251.84 1.455 1.615 2.919 2.318 4.375-.706 1.463-1.484 2.935-2.33 4.398m-.492-25.281c1.443-.783 2.72-1.181 3.795-1.181.602 0 1.134.131 1.582.389.864.499 1.46 1.491 1.771 2.949.335 1.571.312 3.651-.068 6.015-.153.949-.358 1.931-.613 2.94-1.019-.229-2.078-.433-3.175-.61-1.35-.217-2.734-.391-4.145-.52-.54-.764-1.091-1.506-1.652-2.228-.98-1.26-1.977-2.439-2.982-3.526.235-.229.471-.452.705-.67 1.67-1.545 3.279-2.742 4.782-3.558m19.625 18.308c-.41-.763-1.008-1.501-1.779-2.195-1.429-1.289-3.445-2.436-5.989-3.407-.97-.369-2-.707-3.087-1.013.274-1.08.493-2.13.656-3.144.432-2.688.447-5.006.046-6.888-.216-1.015-.557-1.904-1.013-2.639-.498-.804-1.135-1.434-1.894-1.872-.814-.469-1.746-.707-2.77-.707-1.476 0-3.134.494-4.93 1.47-1.675.909-3.445 2.221-5.26 3.901-.25.231-.5.469-.751.712-.238-.232-.477-.458-.716-.679-1.815-1.679-3.585-2.991-5.26-3.901-1.795-.975-3.454-1.47-4.93-1.47-1.024 0-1.956.238-2.77.708-.758.438-1.396 1.067-1.894 1.871-.455.736-.797 1.624-1.013 2.64-.401 1.882-.386 4.199.046 6.888.162 1.008.38 2.052.652 3.127-1.064.302-2.073.635-3.025.996-2.544.971-4.559 2.118-5.989 3.407-.771.694-1.369 1.432-1.778 2.195-.447.833-.674 1.7-.674 2.576 0 .877.227 1.743.674 2.576.409.763 1.007 1.502 1.778 2.198 1.43 1.289 3.445 2.433 5.989 3.404.95.362 1.957.693 3.019.995-.274 1.083-.494 2.134-.657 3.148-.432 2.689-.447 5.007-.046 6.889.217 1.015.557 1.903 1.013 2.639.498.804 1.135 1.432 1.894 1.872.814.469 1.746.707 2.771.707 1.475 0 3.133-.494 4.928-1.47 1.676-.909 3.447-2.221 5.261-3.901.243-.224.485-.454.727-.69.254.247.508.49.762.724 1.815 1.679 3.585 2.991 5.261 3.901 1.795.975 3.454 1.47 4.929 1.47 1.025 0 1.957-.238 2.77-.708.759-.437 1.396-1.067 1.894-1.871.456-.736.797-1.624 1.014-2.639.401-1.882.385-4.2-.047-6.889-.164-1.02-.385-2.076-.661-3.165 1.084-.305 2.113-.643 3.081-1.012 2.544-.971 4.56-2.115 5.989-3.404.771-.696 1.369-1.435 1.779-2.198.446-.833.673-1.699.673-2.576 0-.876-.227-1.743-.673-2.576"
         fill="#67daf9"
         id="path1059" />
      <path
         d="m37.825 68.873c-1.521 0-2.753-1.233-2.753-2.754 0-1.519 1.232-2.752 2.753-2.752 1.52 0 2.753 1.233 2.753 2.752 0 1.521-1.233 2.754-2.753 2.754m7.152-2.779c0-.007-.001-.013-.001-.018 0-.003-.001-.007-.001-.01 0-.004-.001-.007-.001-.012-.001-.005-.002-.01-.002-.015-.001 0-.001-.001-.001-.002-.017-.11-.069-.215-.149-.293-.456-.542-.999-1.023-1.552-1.463-1.188-.947-2.549-1.74-4.049-2.058-.868-.185-1.741-.193-2.613-.037-.793.142-1.558.437-2.273.802-1.12.572-2.143 1.362-3.034 2.246-.165.164-.33.33-.479.509-.2.237-.2.517 0 .753.456.541.999 1.023 1.551 1.463 1.189.947 2.549 1.739 4.05 2.058.868.184 1.74.192 2.612.037.794-.143 1.558-.438 2.274-.803 1.12-.572 2.143-1.361 3.035-2.246.164-.164.328-.33.478-.508.08-.081.132-.185.15-.294v-.002c.001-.006.001-.011.002-.016 0-.003.001-.008.001-.011.001-.004.001-.007.001-.01l.002-.018v-.027c0-.008 0-.017-.001-.025"
         fill="#fff"
         id="path1061" />
      <path
         d="m37.825 65.209c.503 0 .911.408.911.91 0 .504-.408.912-.911.912s-.911-.408-.911-.912c0-.502.408-.91.911-.91"
         fill="#fff"
         id="path1063" />
    </g>
  </g>
  <defs
     id="defs1084">
    <linearGradient
       id="c"
       x2="1"
       gradientTransform="matrix(60.43 0 0 60.43 1.0879 21.42)"
       gradientUnits="userSpaceOnUse">
      <stop
         stop-color="#262728"
         offset="0"
         id="stop1069" />
      <stop
         stop-color="#464b4f"
         offset="1"
         id="stop1071" />
    </linearGradient>
    <linearGradient
       id="b"
       x2="1"
       gradientTransform="matrix(49.172 0 0 49.172 1.0879 17.746)"
       gradientUnits="userSpaceOnUse">
      <stop
         stop-color="#262728"
         offset="0"
         id="stop1074" />
      <stop
         stop-color="#464b4f"
         offset="1"
         id="stop1076" />
    </linearGradient>
    <linearGradient
       id="a"
       x2="1"
       gradientTransform="matrix(73 0 0 73 1 56.589)"
       gradientUnits="userSpaceOnUse">
      <stop
         stop-color="#262728"
         offset="0"
         id="stop1079" />
      <stop
         stop-color="#464b4f"
         offset="1"
         id="stop1081" />
    </linearGradient>
  </defs>
</svg>
